# Blender v2.79 (sub 0) OBJ File: 'untitled.blend'
# www.blender.org
o Icosphere
v 0.000000 -1.000000 -1.360405
v 0.723607 -0.447220 -0.834680
v -0.276388 -0.447220 -0.509756
v -0.894426 -0.447216 -1.360405
v -0.276388 -0.447220 -2.211054
v 0.723607 -0.447220 -1.886130
v 0.276388 0.447220 -0.509756
v -0.723607 0.447220 -0.834680
v -0.723607 0.447220 -1.886130
v 0.276388 0.447220 -2.211054
v 0.894426 0.447216 -1.360405
v 0.000000 1.000000 -1.360405
v -0.162456 -0.850654 -0.860410
v 0.425323 -0.850654 -1.051394
v 0.262869 -0.525738 -0.551393
v 0.850648 -0.525736 -1.360405
v 0.425323 -0.850654 -1.669416
v -0.525730 -0.850652 -1.360405
v -0.688189 -0.525736 -0.860408
v -0.162456 -0.850654 -1.860400
v -0.688189 -0.525736 -1.860402
v 0.262869 -0.525738 -2.169416
v 0.951058 0.000000 -1.051392
v 0.951058 0.000000 -1.669418
v 0.000000 0.000000 -0.360405
v 0.587786 0.000000 -0.551388
v -0.951058 0.000000 -1.051392
v -0.587786 0.000000 -0.551388
v -0.587786 0.000000 -2.169422
v -0.951058 0.000000 -1.669418
v 0.587786 0.000000 -2.169422
v 0.000000 0.000000 -2.360405
v 0.688189 0.525736 -0.860408
v -0.262869 0.525738 -0.551393
v -0.850648 0.525736 -1.360405
v -0.262869 0.525738 -2.169416
v 0.688189 0.525736 -1.860402
v 0.162456 0.850654 -0.860410
v 0.525730 0.850652 -1.360405
v -0.425323 0.850654 -1.051394
v -0.425323 0.850654 -1.669416
v 0.162456 0.850654 -1.860400
v 0.162456 0.850654 -1.860400
v 0.688189 0.525736 -1.860402
v 0.525730 0.850652 -1.360405
vn 0.0000 -1.0000 0.0000
vn 0.4253 -0.8506 0.3090
vn -0.1625 -0.8506 0.5000
vn 0.7236 -0.4472 0.5257
vn 0.8506 -0.5257 0.0000
vn -0.5257 -0.8506 0.0000
vn -0.1625 -0.8506 -0.5000
vn 0.4253 -0.8506 -0.3090
vn 0.9510 0.0000 0.3090
vn -0.2764 -0.4472 0.8506
vn 0.2629 -0.5257 0.8090
vn 0.0000 0.0000 1.0000
vn -0.8944 -0.4472 0.0000
vn -0.6882 -0.5257 0.5000
vn -0.9510 0.0000 0.3090
vn -0.2764 -0.4472 -0.8506
vn -0.6882 -0.5257 -0.5000
vn -0.5878 0.0000 -0.8090
vn 0.7236 -0.4472 -0.5257
vn 0.2629 -0.5257 -0.8090
vn 0.5878 0.0000 -0.8090
vn 0.5878 0.0000 0.8090
vn -0.5878 0.0000 0.8090
vn -0.9510 0.0000 -0.3090
vn 0.0000 0.0000 -1.0000
vn 0.9510 0.0000 -0.3090
vn 0.2764 0.4472 0.8506
vn 0.6882 0.5257 0.5000
vn 0.1625 0.8506 0.5000
vn -0.7236 0.4472 0.5257
vn -0.2629 0.5257 0.8090
vn -0.4253 0.8506 0.3090
vn -0.7236 0.4472 -0.5257
vn -0.8506 0.5257 0.0000
vn -0.4253 0.8506 -0.3090
vn 0.2764 0.4472 -0.8506
vn -0.2629 0.5257 -0.8090
vn 0.0855 0.8479 -0.5232
vn 0.8944 0.4472 0.0000
vn 0.7201 0.4557 -0.5232
vn 0.5240 0.8479 0.0803
vn 0.0000 1.0000 0.0000
vn 0.4911 0.7946 -0.3568
s 1
f 1//1 14//2 13//3
f 2//4 14//2 16//5
f 1//1 13//3 18//6
f 1//1 18//6 20//7
f 1//1 20//7 17//8
f 2//4 16//5 23//9
f 3//10 15//11 25//12
f 4//13 19//14 27//15
f 5//16 21//17 29//18
f 6//19 22//20 31//21
f 2//4 23//9 26//22
f 3//10 25//12 28//23
f 4//13 27//15 30//24
f 5//16 29//18 32//25
f 6//19 31//21 24//26
f 7//27 33//28 38//29
f 8//30 34//31 40//32
f 9//33 35//34 41//35
f 10//36 36//37 43//38
f 11//39 37//40 45//41
f 45//41 43//38 12//42
f 39//43 44//43 42//43
f 37//40 10//36 43//38
f 43//38 41//35 12//42
f 43//38 36//37 41//35
f 36//37 9//33 41//35
f 41//35 40//32 12//42
f 41//35 35//34 40//32
f 35//34 8//30 40//32
f 40//32 38//29 12//42
f 40//32 34//31 38//29
f 34//31 7//27 38//29
f 38//29 45//41 12//42
f 38//29 33//28 45//41
f 33//28 11//39 45//41
f 24//26 37//40 11//39
f 24//26 31//21 37//40
f 31//21 10//36 37//40
f 32//25 36//37 10//36
f 32//25 29//18 36//37
f 29//18 9//33 36//37
f 30//24 35//34 9//33
f 30//24 27//15 35//34
f 27//15 8//30 35//34
f 28//23 34//31 8//30
f 28//23 25//12 34//31
f 25//12 7//27 34//31
f 26//22 33//28 7//27
f 26//22 23//9 33//28
f 23//9 11//39 33//28
f 31//21 32//25 10//36
f 31//21 22//20 32//25
f 22//20 5//16 32//25
f 29//18 30//24 9//33
f 29//18 21//17 30//24
f 21//17 4//13 30//24
f 27//15 28//23 8//30
f 27//15 19//14 28//23
f 19//14 3//10 28//23
f 25//12 26//22 7//27
f 25//12 15//11 26//22
f 15//11 2//4 26//22
f 23//9 24//26 11//39
f 23//9 16//5 24//26
f 16//5 6//19 24//26
f 17//8 22//20 6//19
f 17//8 20//7 22//20
f 20//7 5//16 22//20
f 20//7 21//17 5//16
f 20//7 18//6 21//17
f 18//6 4//13 21//17
f 18//6 19//14 4//13
f 18//6 13//3 19//14
f 13//3 3//10 19//14
f 16//5 17//8 6//19
f 16//5 14//2 17//8
f 14//2 1//1 17//8
f 13//3 15//11 3//10
f 13//3 14//2 15//11
f 14//2 2//4 15//11
o Cube
v 1.000813 -0.796609 -1.000813
v 1.000813 -0.796608 1.000813
v -1.000813 -0.796608 1.000813
v -1.000813 -0.796609 -1.000814
v 1.070074 1.472263 -1.070073
v 1.070073 1.472264 1.070074
v -1.070074 1.472264 1.070073
v -1.070074 1.472264 -1.070074
v 0.000000 -0.494522 -1.097999
v 0.000000 -0.494521 1.097999
v 0.000000 1.804591 -1.235357
v -0.000001 1.804591 1.235357
v 1.097999 -0.494522 0.000000
v -1.097999 -0.494521 -0.000000
v 1.235357 1.804591 0.000001
v -1.235357 1.804591 -0.000000
v -0.000000 2.478122 0.000000
v 0.000000 0.891634 -0.000000
v -1.050551 -0.589254 -0.525276
v -1.183553 1.701859 -0.591777
v 0.000000 0.148856 -0.709545
v 1.050551 -0.589254 -0.525275
v 1.183553 1.701859 -0.591776
v 0.000000 2.354791 -0.574229
v 1.050551 -0.589254 0.525276
v 1.183552 1.701859 0.591777
v -0.000000 2.354791 0.574229
v -1.050551 -0.589254 0.525275
v -1.183553 1.701859 0.591776
v 0.000000 0.148857 0.709544
v 0.525276 -0.589254 -1.050551
v 0.525276 -0.589254 1.050551
v 0.591777 1.701859 -1.183552
v 0.591776 1.701859 1.183553
v 0.709545 0.148856 -0.000000
v 0.574229 2.354791 0.000000
v 0.703460 2.022310 -0.703459
v 0.637678 -0.189616 -0.637678
v 0.637678 -0.189616 0.637678
v 0.703459 2.022310 0.703460
v -0.525275 -0.589254 -1.050551
v -0.525276 -0.589254 1.050551
v -0.591776 1.701859 -1.183553
v -0.591777 1.701859 1.183553
v -0.574229 2.354791 -0.000000
v -0.709544 0.148857 -0.000000
v -0.637677 -0.189616 -0.637678
v -0.703459 2.022310 -0.703459
v -0.703460 2.022310 0.703459
v -0.637678 -0.189615 0.637678
v 1.070074 1.472263 -1.070073
v 1.070073 1.472264 1.070074
v 1.183552 1.701859 0.591777
v 1.183553 1.701859 -0.591776
v 1.235357 1.804591 0.000001
v -0.591777 1.701859 1.183553
v -1.070074 1.472264 1.070073
v 0.591776 1.701859 1.183553
v -0.000001 1.804591 1.235357
v 1.070073 1.472264 1.070074
v -1.070074 1.472264 -1.070074
v -1.183553 1.701859 -0.591777
v -1.183553 1.701859 0.591776
v -1.235357 1.804591 -0.000000
v -0.591776 1.701859 -1.183553
v -1.070074 1.472264 -1.070074
v 0.591777 1.701859 -1.183552
v 0.000000 1.804591 -1.235357
v 1.070074 1.472263 -1.070073
vn 0.3063 -0.8367 0.4540
vn -0.4540 -0.8367 -0.3063
vn 0.5545 -0.6205 -0.5545
vn -0.4379 0.7851 0.4379
vn -0.5145 0.6859 0.5145
vn -0.3172 0.7530 0.5764
vn 0.4540 -0.8367 -0.3063
vn 0.9802 -0.0592 0.1890
vn 0.3925 -0.8318 0.3925
vn -0.7053 -0.0715 0.7053
vn -0.3925 -0.8318 0.3925
vn -0.4540 -0.8367 0.3063
vn -0.9802 -0.0592 -0.1890
vn -0.3925 -0.8318 -0.3925
vn 0.3063 -0.8367 -0.4540
vn -0.1890 -0.0592 -0.9802
vn -0.1274 -0.0609 -0.9900
vn 0.1274 -0.0609 -0.9900
vn 0.0000 -0.9213 -0.3888
vn 0.0000 -0.0596 -0.9982
vn 0.1274 -0.0609 0.9900
vn 0.0000 -0.9213 0.3888
vn -0.3063 -0.8367 0.4540
vn 0.4379 0.7851 0.4379
vn 0.0000 0.7872 0.6167
vn 0.3172 0.7530 0.5764
vn -0.5545 -0.6205 -0.5545
vn 0.0000 -0.6751 -0.7377
vn -0.7377 -0.6751 0.0000
vn 0.0000 -0.6751 0.7377
vn -0.5545 -0.6205 0.5545
vn 0.0000 0.8975 -0.4410
vn 0.4410 0.8975 0.0000
vn 0.4379 0.7851 -0.4379
vn -0.9900 -0.0609 0.1274
vn -0.3888 -0.9213 0.0000
vn 0.9900 -0.0609 -0.1274
vn 0.3888 -0.9213 0.0000
vn 0.4540 -0.8367 0.3063
vn -0.4379 0.7851 -0.4379
vn -0.6167 0.7872 0.0000
vn -0.4410 0.8975 0.0000
vn 0.5545 -0.6205 0.5545
vn -0.5145 0.6859 -0.5145
vn -0.3172 0.7530 -0.5764
vn 0.9802 -0.0592 -0.1890
vn 0.3925 -0.8318 -0.3925
vn 0.0000 0.7872 -0.6167
vn 0.3172 0.7530 -0.5764
vn -0.3063 -0.8367 -0.4540
vn -0.9900 -0.0609 -0.1274
vn 0.0000 -1.0000 0.0000
vn 0.0000 0.8975 0.4410
vn 0.9900 -0.0609 0.1274
vn 0.7377 -0.6751 0.0000
vn 0.6167 0.7872 0.0000
vn 0.5764 0.7530 0.3172
vn 0.5145 0.6859 -0.5145
vn 0.5764 0.7530 -0.3172
vn 0.5145 0.6859 0.5145
vn 0.1890 -0.0592 0.9802
vn 0.1890 -0.0592 -0.9802
vn 0.0000 1.0000 0.0000
vn -0.1274 -0.0609 0.9900
vn -0.5764 0.7530 0.3172
vn 0.0000 -0.0596 0.9982
vn -0.9982 -0.0596 0.0000
vn 0.9982 -0.0596 0.0000
vn -0.5764 0.7530 -0.3172
s 1
f 87//44 73//45 95//46
f 94//47 52//48 101//49
f 70//50 97//51 47//52
f 87//44 102//53 48//54
f 64//55 106//56 49//57
f 86//58 111//59 110//60
f 112//61 54//62 113//63
f 103//64 55//65 77//66
f 85//67 57//68 79//69
f 84//70 55//65 75//71
f 80//72 66//73 83//74
f 69//75 81//76 82//77
f 108//78 59//79 73//45
f 99//80 58//81 67//82
f 93//83 61//84 90//85
f 92//86 59//79 64//55
f 86//58 64//55 49//57
f 53//87 93//83 88//88
f 96//89 67//82 46//90
f 56//91 82//77 78//92
f 83//74 54//62 76//93
f 59//79 107//94 64//55
f 102//53 73//45 48//54
f 80//72 75//71 63//95
f 81//76 72//96 85//67
f 58//81 98//97 70//50
f 61//84 94//47 90//85
f 95//46 59//79 91//98
f 60//99 85//67 71//100
f 58//81 84//70 80//72
f 67//82 76//93 46//90
f 114//101 82//77 68//102
f 82//77 60//99 68//102
f 58//81 83//74 67//82
f 70//50 77//66 84//70
f 85//67 105//103 71//100
f 51//104 77//66 47//52
f 50//105 76//93 112//61
f 75//71 91//98 63//95
f 90//85 72//96 62//106
f 56//91 93//83 69//75
f 54//62 92//86 86//58
f 66//73 91//98 92//86
f 69//75 90//85 62//106
f 54//62 110//60 113//63
f 55//65 89//107 87//44
f 94//47 57//68 72//96
f 55//65 95//46 75//71
f 87//44 48//54 73//45
f 94//47 74//108 52//48
f 70//50 98//97 97//51
f 87//44 89//107 102//53
f 64//55 107//94 106//56
f 86//58 49//57 111//59
f 112//61 76//93 54//62
f 103//64 104//109 55//65
f 85//67 72//96 57//68
f 84//70 77//66 55//65
f 80//72 63//95 66//73
f 69//75 62//106 81//76
f 108//78 109//110 59//79
f 99//80 100//111 58//81
f 93//83 65//112 61//84
f 92//86 91//98 59//79
f 86//58 92//86 64//55
f 53//87 65//112 93//83
f 96//89 99//80 67//82
f 56//91 69//75 82//77
f 83//74 66//73 54//62
f 59//79 109//110 107//94
f 102//53 108//78 73//45
f 80//72 84//70 75//71
f 81//76 62//106 72//96
f 58//81 100//111 98//97
f 61//84 74//108 94//47
f 95//46 73//45 59//79
f 60//99 81//76 85//67
f 58//81 70//50 84//70
f 67//82 83//74 76//93
f 114//101 78//92 82//77
f 82//77 81//76 60//99
f 58//81 80//72 83//74
f 70//50 47//52 77//66
f 85//67 79//69 105//103
f 51//104 103//64 77//66
f 50//105 46//90 76//93
f 75//71 95//46 91//98
f 90//85 94//47 72//96
f 56//91 88//88 93//83
f 54//62 66//73 92//86
f 66//73 63//95 91//98
f 69//75 93//83 90//85
f 54//62 86//58 110//60
f 55//65 104//109 89//107
f 94//47 101//49 57//68
f 55//65 87//44 95//46
